HIERARCHY
ROOT Hips
{
    OFFSET 0.000000 0.000000 0.000000
    CHANNELS 6 Xposition Yposition Zposition Zrotation Xrotation Yrotation
    JOINT Spine
    {
        OFFSET -0.000000 14.517291 0.000000
        CHANNELS 3 Zrotation Xrotation Yrotation
        JOINT Spine1
        {
            OFFSET -0.000000 37.558300 0.000000
            CHANNELS 3 Zrotation Xrotation Yrotation
            JOINT Neck
            {
                OFFSET -0.000000 37.404057 3.400369
                CHANNELS 3 Zrotation Xrotation Yrotation
                JOINT Head
                {
                    OFFSET -0.000000 24.785618 -3.540803
                    CHANNELS 3 Zrotation Xrotation Yrotation
                    End Site
                    {
                        OFFSET -0.000000 35.408028 0.000000
                    }
                }
            }
            JOINT LeftShoulder
            {
                OFFSET 6.992933 33.973492 -0.192664
                CHANNELS 3 Zrotation Xrotation Yrotation
                JOINT LeftArm
                {
                    OFFSET 21.527611 0.000000 0.000000
                    CHANNELS 3 Zrotation Xrotation Yrotation
                    JOINT LeftForeArm
                    {
                        OFFSET 56.353916 0.000000 0.000000
                        CHANNELS 3 Zrotation Xrotation Yrotation
                        JOINT LeftHand
                        {
                            OFFSET 47.774071 0.000000 0.000000
                            CHANNELS 3 Zrotation Xrotation Yrotation
                            End Site
                            {
                                OFFSET 26.556021 0.000000 0.000000
                            }
                        }
                    }
                }
            }
            JOINT RightShoulder
            {
                OFFSET -7.065357 33.973492 -0.192664
                CHANNELS 3 Zrotation Xrotation Yrotation
                JOINT RightArm
                {
                    OFFSET -21.527611 0.000000 0.000000
                    CHANNELS 3 Zrotation Xrotation Yrotation
                    JOINT RightForeArm
                    {
                        OFFSET -56.353916 0.000000 0.000000
                        CHANNELS 3 Zrotation Xrotation Yrotation
                        JOINT RightHand
                        {
                            OFFSET -47.774071 0.000000 0.000000
                            CHANNELS 3 Zrotation Xrotation Yrotation
                            End Site
                            {
                                OFFSET -26.556021 0.000000 0.000000
                            }
                        }
                    }
                }
            }
        }
    }
    JOINT LeftUpLeg
    {
        OFFSET 17.704014 0.000000 0.000000
        CHANNELS 3 Zrotation Xrotation Yrotation
        JOINT LeftLeg
        {
            OFFSET -0.000000 -81.181816 0.000000
            CHANNELS 3 Zrotation Xrotation Yrotation
            JOINT LeftFoot
            {
                OFFSET -0.000000 -62.821102 0.000000
                CHANNELS 3 Zrotation Xrotation Yrotation
                JOINT LeftToeBase
                {
                    OFFSET -0.000000 -11.507608 26.556021
                    CHANNELS 3 Zrotation Xrotation Yrotation
                    End Site
                    {
                        OFFSET -0.000000 0.000000 7.081605
                    }
                }
            }
        }
    }
    JOINT RightUpLeg
    {
        OFFSET -17.704014 0.000000 0.000000
        CHANNELS 3 Zrotation Xrotation Yrotation
        JOINT RightLeg
        {
            OFFSET -0.000000 -81.181816 0.000000
            CHANNELS 3 Zrotation Xrotation Yrotation
            JOINT RightFoot
            {
                OFFSET -0.000000 -62.821102 0.000000
                CHANNELS 3 Zrotation Xrotation Yrotation
                JOINT RightToeBase
                {
                    OFFSET -0.000000 -11.507608 26.556021
                    CHANNELS 3 Zrotation Xrotation Yrotation
                    End Site
                    {
                        OFFSET -0.000000 0.000000 7.081605
                    }
                }
            }
        }
    }
}
MOTION
Frames:    11
Frame Time:    0.008333
3.733634    150.819931    -12.664779    -0.126144    -2.602164    -27.554726    1.787128    0.305434    -0.592435    -1.191963    1.747077    -0.179367    16.010084    4.874104    13.164825    -9.836362    -1.276724    10.519176    0.453060    9.518687    -13.410483    -34.312477    7.087819    -37.176964    32.939171    -43.312214    -43.384670    -17.542725    -28.278366    -32.193562    -4.528178    4.950332    -4.399898    36.689487    10.694187    74.675735    5.797429    -9.422676    95.009033    8.595098    -14.203732    19.162949    20.010168    -25.663153    -1.978866    -16.997627    25.187420    -5.928812    -8.705012    -1.478605    41.387432    0.000000    0.000000    0.000000    -4.263320    -4.560979    12.067310    3.855196    43.951111    3.743539    -5.421834    -36.079025    -11.306860    0.000000    0.000000    0.000000    
3.730459    150.815506    -12.661594    -0.129776    -2.604577    -27.536926    1.788686    0.297223    -0.587835    -1.193971    1.756244    -0.177842    16.020733    4.892889    13.162252    -9.856057    -1.314292    10.511902    0.453731    9.522950    -13.412495    -34.310143    7.107350    -37.185936    32.969498    -43.326900    -43.350384    -17.571211    -28.286388    -32.200813    -4.527402    4.937954    -4.399903    36.696228    10.708573    74.654564    5.802693    -9.421291    95.010605    8.579900    -14.212132    19.142611    20.007380    -25.668314    -1.985911    -16.997194    25.196363    -5.940218    -8.701597    -1.485405    41.387627    0.000000    0.000000    0.000000    -4.256079    -4.547979    12.045735    3.830983    43.948502    3.755935    -5.407520    -36.091518    -11.306751    0.000000    0.000000    0.000000    
3.728800    150.813522    -12.657751    -0.127417    -2.605180    -27.512257    1.791931    0.286695    -0.588565    -1.207965    1.763192    -0.177851    16.012133    4.894226    13.155086    -9.835638    -1.337817    10.506658    0.465350    9.521839    -13.413161    -34.327950    7.095478    -37.187469    32.926086    -43.320160    -43.383049    -17.539558    -28.295923    -32.182995    -4.516199    4.940490    -4.406453    36.694336    10.710449    74.647728    5.809389    -9.415025    95.008156    8.569683    -14.214093    19.149454    19.997969    -25.678120    -1.998343    -17.002808    25.196463    -5.938432    -8.701229    -1.486923    41.386471    0.000000    0.000000    0.000000    -4.255541    -4.537525    12.014586    3.807731    43.943943    3.795710    -5.438883    -36.095562    -11.335101    0.000000    0.000000    0.000000    
3.726671    150.812256    -12.653181    -0.127962    -2.611427    -27.490580    1.793963    0.279524    -0.590250    -1.214833    1.778555    -0.177995    16.022264    4.883767    13.159070    -9.847529    -1.345466    10.505725    0.461460    9.511403    -13.411424    -34.338837    7.082339    -37.180260    32.881565    -43.311642    -43.415363    -17.549339    -28.290651    -32.181248    -4.515313    4.933177    -4.404986    36.703640    10.716228    74.636696    5.813349    -9.397607    95.007103    8.555571    -14.204744    19.130377    19.986317    -25.678051    -2.011411    -16.995764    25.196564    -5.958736    -8.693391    -1.480426    41.376263    0.000000    0.000000    0.000000    -4.256933    -4.520130    11.995932    3.799395    43.934376    3.772328    -5.415861    -36.107613    -11.300089    0.000000    0.000000    0.000000    
3.726055    150.812332    -12.649554    -0.127404    -2.610821    -27.470028    1.798152    0.268215    -0.586749    -1.217501    1.789067    -0.176944    16.021700    4.887227    13.157643    -9.859232    -1.368784    10.501050    0.461987    9.511054    -13.414078    -34.345131    7.081871    -37.181477    32.858124    -43.314369    -43.428936    -17.537172    -28.302444    -32.178093    -4.519565    4.933076    -4.413248    36.707832    10.723310    74.631310    5.823221    -9.383581    95.011803    8.563304    -14.201330    19.122976    19.978537    -25.686142    -2.014701    -16.993258    25.200480    -5.971265    -8.706334    -1.488899    41.380489    0.000000    0.000000    0.000000    -4.254468    -4.518145    11.984068    3.801982    43.940842    3.788133    -5.458352    -36.097191    -11.355902    0.000000    0.000000    0.000000    
3.723897    150.811813    -12.646967    -0.124478    -2.610513    -27.450312    1.796792    0.263829    -0.584867    -1.220655    1.787590    -0.175988    16.025648    4.892316    13.154969    -9.866029    -1.388934    10.495837    0.464734    9.516320    -13.409275    -34.350971    7.079985    -37.186016    32.839603    -43.312424    -43.446911    -17.530539    -28.306290    -32.159264    -4.513703    4.935258    -4.426144    36.696430    10.736657    74.635612    5.821260    -9.377501    95.010849    8.556065    -14.194332    19.120314    19.968420    -25.694036    -2.002976    -16.978632    25.204525    -5.991794    -8.701247    -1.474741    41.363369    0.000000    0.000000    0.000000    -4.253366    -4.516165    11.997430    3.817424    43.942413    3.738784    -5.417280    -36.100262    -11.318667    0.000000    0.000000    0.000000    
3.725036    150.812714    -12.645658    -0.119257    -2.610282    -27.431391    1.795712    0.258519    -0.577419    -1.228506    1.785949    -0.173582    16.046324    4.887067    13.148968    -9.887342    -1.391123    10.483122    0.475208    9.522583    -13.424726    -34.358719    7.080999    -37.179153    32.832100    -43.321304    -43.456074    -17.531214    -28.316767    -32.160717    -4.509029    4.926944    -4.421331    36.711765    10.736160    74.601097    5.837964    -9.337683    95.023598    8.570719    -14.170998    19.132063    19.955236    -25.702354    -2.014629    -16.974714    25.203238    -6.009125    -8.710836    -1.480783    41.379650    0.000000    0.000000    0.000000    -4.254964    -4.517340    11.995941    3.814985    43.949066    3.764708    -5.438319    -36.096554    -11.361326    0.000000    0.000000    0.000000    
3.721934    150.813156    -12.643645    -0.115379    -2.610205    -27.409124    1.786784    0.252248    -0.580415    -1.216478    1.789324    -0.174822    16.027264    4.881258    13.152055    -9.870105    -1.404193    10.489067    0.469335    9.512490    -13.417996    -34.359447    7.099183    -37.173973    32.830307    -43.336197    -43.458946    -17.546122    -28.331415    -32.156044    -4.518919    4.920722    -4.416735    36.718445    10.736872    74.594505    5.857984    -9.302109    95.034096    8.545097    -14.164207    19.112341    19.944317    -25.710518    -2.011724    -16.967358    25.203773    -6.024312    -8.708776    -1.470216    41.367542    0.000000    0.000000    0.000000    -4.257159    -4.515475    12.017624    3.859788    43.953709    3.722692    -5.452824    -36.093845    -11.389607    0.000000    0.000000    0.000000    
3.722890    150.812775    -12.642583    -0.112511    -2.609996    -27.392673    1.782704    0.254391    -0.577984    -1.207985    1.781485    -0.174094    16.027714    4.878259    13.151493    -9.881309    -1.411604    10.485649    0.465749    9.514001    -13.412975    -34.361759    7.116661    -37.169682    32.833218    -43.350822    -43.465591    -17.549540    -28.346357    -32.146931    -4.521684    4.916357    -4.422482    36.695236    10.759616    74.594955    5.855980    -9.313777    95.043869    8.562746    -14.170857    19.121700    19.934731    -25.715151    -2.015779    -16.958162    25.202255    -6.050165    -8.717287    -1.473857    41.376671    0.000000    0.000000    0.000000    -4.256010    -4.512371    12.034578    3.878561    43.949501    3.687461    -5.454767    -36.093075    -11.413039    0.000000    0.000000    0.000000    
3.723124    150.811310    -12.640615    -0.107862    -2.614029    -27.374212    1.779906    0.256907    -0.577779    -1.211099    1.776747    -0.174044    16.036478    4.872756    13.149611    -9.894777    -1.410250    10.479990    0.467808    9.511595    -13.414999    -34.352882    7.141958    -37.156738    32.856678    -43.374153    -43.453152    -17.565525    -28.364183    -32.153538    -4.515731    4.917458    -4.420207    36.686153    10.755204    74.591576    5.856160    -9.282742    95.047035    8.551294    -14.142543    19.122051    19.921827    -25.720686    -2.014606    -16.957611    25.203758    -6.055910    -8.708077    -1.466012    41.371964    0.000000    0.000000    0.000000    -4.259867    -4.505728    12.031357    3.876119    43.951031    3.691510    -5.466463    -36.098179    -11.422956    0.000000    0.000000    0.000000    
3.722439    150.809769    -12.637763    -0.107019    -2.613386    -27.359138    1.779081    0.253374    -0.576955    -1.206634    1.777587    -0.173719    16.035183    4.871804    13.150974    -9.898586    -1.419751    10.480017    0.467324    9.505567    -13.409445    -34.354675    7.163428    -37.152256    32.871632    -43.392548    -43.447498    -17.569447    -28.382401    -32.146530    -4.514385    4.921424    -4.420395    36.687687    10.746605    74.593224    5.880943    -9.245663    95.058273    8.532274    -14.135736    19.139395    19.918156    -25.725912    -2.012837    -16.960159    25.203913    -6.047821    -8.698396    -1.462704    41.357449    0.000000    0.000000    0.000000    -4.259315    -4.499823    12.042243    3.896498    43.945782    3.664584    -5.467884    -36.104420    -11.439416    0.000000    0.000000    0.000000    
